Coordinates
version=1
nRows=19
nColumns=36
inDegrees=yes

Units are S.I. units (second, meters, Newtons, ...)
If the header above contains a line with 'inDegrees', this indicates whether rotational values are in degrees (yes) or radians (no).

endheader
time	pelvis_tilt	pelvis_list	pelvis_rotation	pelvis_tx	pelvis_ty	pelvis_tz	hip_flexion_r	hip_adduction_r	hip_rotation_r	knee_angle_r	knee_angle_r_beta	ankle_angle_r	subtalar_angle_r	mtp_angle_r	hip_flexion_l	hip_adduction_l	hip_rotation_l	knee_angle_l	knee_angle_l_beta	ankle_angle_l	subtalar_angle_l	mtp_angle_l	lumbar_extension	lumbar_bending	lumbar_rotation	arm_flex_r	arm_add_r	arm_rot_r	elbow_flex_r	pro_sup_r	arm_flex_l	arm_add_l	arm_rot_l	elbow_flex_l	pro_sup_l
      0.00000000	      1.52775081	     -0.89546826	      0.32185575	     -1.06362450	      1.41896893	     -0.04743824	     -2.98386286	      2.60121079	      1.67119523	      7.86865610	      0.13733396	      6.38022207	     -7.98596570	     -6.24948474	     -2.71206950	     -1.59446850	      0.77753189	      6.90165180	      0.12045655	      9.51222528	     -0.93679191	     -6.24948474	     -7.42973788	      0.77243677	     -0.09508080	      1.32184101	     -4.74726640	     22.52374821	     84.38533990	     93.96220462	      3.20826392	     -3.63411617	     23.12455376	     81.85897567	     90.39565775
      0.00416670	      0.42876264	     -0.48776753	      0.30508632	     -1.06177782	      1.41788740	     -0.04812321	     -1.76437685	      2.31440522	      2.36566448	      7.95633503	      0.13886424	      8.32017284	     -6.16035967	     -6.60520280	     -1.43929945	     -0.74837446	      2.01879875	      6.89732359	      0.12038101	      8.36876566	     -0.78346119	     -6.60520280	     -5.62164221	      0.59641017	     -0.49920716	      0.54358775	     -4.50104964	     21.09445102	     84.22790310	     87.66704918	      2.14672794	     -4.21196463	     22.02957310	     82.32871503	     83.42825598
      0.00833330	     -0.63689593	      0.10553330	      0.02958413	     -1.06173963	      1.41396228	     -0.04721206	     -0.84488901	      1.69850907	      1.81280229	      7.42349734	      0.12956447	      8.53753960	     -5.64918403	     -6.70827409	     -0.36921830	     -0.12421399	      1.64627550	      6.84594138	      0.11948422	      8.13445133	     -0.33248423	     -6.70827409	     -4.10676053	     -0.29650299	     -0.09899495	      0.29645526	     -4.51058804	     21.40461457	     83.76312202	     86.02318207	      2.28180387	     -4.75691372	     22.10177507	     82.07695147	     81.78413177
      0.01250000	     -0.23387953	      0.33752167	     -0.14261761	     -1.06195084	      1.41766706	     -0.04652218	     -1.39044880	      1.41593355	      1.57063014	      7.06938583	      0.12338406	      8.77466743	     -4.89289989	     -6.77591677	     -1.22041818	      0.19537218	      1.72778609	      6.20242671	      0.10825277	      7.94691470	     -0.35522040	     -6.77591677	     -4.60210400	     -0.70307717	      0.35335318	      0.29351406	     -4.74349091	     21.98617974	     83.37067820	     85.45021618	      2.92172493	     -4.99866409	     22.39960268	     81.72216143	     81.12201987
      0.01666670	     -0.22972330	      0.37158592	     -0.28048873	     -1.06199353	      1.41771298	     -0.04629552	     -1.51047727	      1.38251565	      1.31919215	      6.78295567	      0.11838491	      8.84244114	     -4.48464612	     -6.99120567	     -1.48360071	      0.28354402	      1.73517277	      5.76245014	      0.10057373	      7.92278275	     -0.33522319	     -6.99120567	     -4.65640228	     -0.78865284	      0.97115956	     -0.14426456	     -4.78807411	     21.99690257	     83.89017028	     87.89886662	      3.55906362	     -4.99969209	     23.09194919	     81.33433493	     84.05360272
      0.02083330	     -0.07117307	      0.36697655	     -0.31973583	     -1.06042463	      1.41797549	     -0.04542613	     -1.78968980	      1.42637293	      1.33378984	      6.58769966	      0.11497705	      8.78614066	     -4.47894017	     -7.05051981	     -1.80548244	      0.25983335	      1.74156158	      5.62721545	      0.09821344	      8.02433190	     -0.59148029	     -7.05051981	     -4.73921705	     -0.85056593	      1.04156764	     -0.16221420	     -4.80053173	     22.63195754	     84.12707270	     86.16867488	      3.65244540	     -4.99880216	     23.37033494	     81.29804779	     82.61177091
      0.02500000	     -0.10484933	      0.35290457	     -0.32210097	     -1.06074295	      1.41867721	     -0.04531482	     -1.86419483	      1.43916320	      1.22285986	      6.38925404	      0.11151352	      8.72144695	     -4.38298867	     -7.12547331	     -1.83546686	      0.23297382	      1.80447669	      5.53798403	      0.09665606	      8.08533558	     -0.70898303	     -7.12547331	     -4.71578854	     -0.86950593	      1.21572484	     -0.37723532	     -4.77993140	     22.74149476	     84.75941927	     85.03587044	      3.68628963	     -5.05143952	     23.73271731	     81.49973958	     82.47203454
      0.02916670	     -0.04784683	      0.36636624	     -0.31639367	     -1.06093219	      1.41826938	     -0.04527090	     -2.01031263	      1.45687873	      1.27322799	      6.20899057	      0.10836733	      8.56999005	     -4.47420814	     -7.15272776	     -1.86423660	      0.25782932	      1.91325647	      5.57304726	      0.09726802	      8.08952856	     -0.96495093	     -7.15272776	     -4.68972145	     -0.94203792	      1.20398823	     -0.39340042	     -4.71304203	     22.93540149	     84.84051095	     84.43308995	      3.71107724	     -4.97186999	     23.76001716	     81.25048205	     82.18490133
      0.03333330	     -0.08415739	      0.39862960	     -0.27473453	     -1.06145748	      1.41505416	     -0.04623210	     -1.99677538	      1.41481217	      1.23864628	      6.09864335	      0.10644141	      8.56501417	     -4.51843022	     -7.19928370	     -1.77416732	      0.33030464	      2.15321199	      5.61833368	      0.09805842	      8.07220845	     -1.32392427	     -7.19928370	     -4.64352402	     -0.98541536	      1.27126849	     -0.54816274	     -4.70303114	     22.72553509	     85.30321535	     84.97629949	      3.72563438	     -4.91732809	     23.85021155	     81.29273807	     84.41653895
      0.03750000	     -0.07821726	      0.43956061	     -0.35762063	     -1.06122044	      1.41841997	     -0.04626340	     -2.03580492	      1.36167021	      1.36644288	      5.97700314	      0.10431838	      8.39921988	     -4.55838273	     -7.22972290	     -1.76389363	      0.38685681	      2.00552415	      5.61809241	      0.09805421	      8.05488010	     -1.16474286	     -7.22972290	     -4.63696573	     -1.01914034	      1.29975153	     -0.49078834	     -4.80274197	     22.87872452	     85.41314123	     84.30162160	      3.67222889	     -4.94344406	     23.83289218	     81.28143089	     83.95536580
      0.04166670	     -0.15539929	      0.47133888	     -0.32802571	     -1.06242702	      1.41741259	     -0.04547351	     -1.96402643	      1.33556369	      1.34582391	      5.87724106	      0.10257721	      8.32877423	     -4.53968542	     -7.31024260	     -1.61693522	      0.44190520	      2.18918129	      5.67718460	      0.09908556	      7.95039818	     -1.43725089	     -7.31024260	     -4.60643164	     -1.08657192	      1.16795425	     -0.42623190	     -4.84298852	     22.93962359	     85.47189943	     84.74084811	      3.59982774	     -4.95488861	     23.60554437	     81.40552893	     85.74223065
      0.04583330	     -0.95927612	      0.49582358	     -0.30719255	     -1.06204311	      1.41446706	     -0.04563447	     -1.00896305	      1.30974073	      1.26998240	      6.02929182	      0.10523099	      8.44617674	     -4.36685824	     -7.33020314	     -0.62981124	      0.46969790	      2.26902695	      5.89095178	      0.10281650	      8.07579449	     -1.43503989	     -7.33020314	     -3.42823451	     -1.12717256	      1.14013156	     -0.58300708	     -4.88694077	     22.97555270	     85.09648834	     83.11809681	      3.31839263	     -4.97610764	     23.64918211	     81.17561925	     84.07824399
      0.05000000	     -0.27542812	      0.53816090	     -0.28317124	     -1.06313611	      1.41488928	     -0.04750625	     -1.83823141	      1.22429017	      1.18885531	      5.76867573	      0.10068239	      8.09288236	     -4.61689284	     -7.33561883	     -1.42047697	      0.56999487	      2.39261096	      5.81073674	      0.10141649	      7.81797944	     -1.60455920	     -7.33561883	     -4.50850126	     -1.15051824	      1.11110888	     -0.41342810	     -5.05048752	     23.29643584	     85.74822318	     83.01675019	      3.70632019	     -4.96396037	     23.68333370	     81.56257055	     83.97033715
      0.05416670	     -0.35424061	      0.52966318	     -0.25746822	     -1.06294940	      1.41346634	     -0.04570599	     -1.76860597	      1.24421469	      1.18669682	      5.66689668	      0.09890601	      8.07856364	     -4.65900432	     -7.34574891	     -1.31001741	      0.55753835	      2.44592633	      5.83880963	      0.10190645	      7.82915522	     -1.76065883	     -7.34574891	     -4.45486210	     -1.14418561	      1.09775962	     -0.43362154	     -5.13102686	     23.31695385	     85.92804939	     82.44294159	      3.68936378	     -4.99636000	     23.65397894	     81.85545286	     83.39207447
      0.05833330	     -0.41447616	      0.52097935	     -0.23807810	     -1.06166649	      1.41630878	     -0.04553878	     -1.75360094	      1.26198456	      1.11231905	      5.58187061	      0.09742202	      7.94247735	     -4.65066482	     -7.37968896	     -1.28375358	      0.52824522	      2.50925989	      5.77892464	      0.10086126	      7.66275061	     -1.85658571	     -7.37968896	     -4.31437916	     -1.14234656	      1.03077146	     -0.46467544	     -5.16474869	     23.55382690	     85.81709876	     79.82317958	      3.60861039	     -4.98885853	     23.69381106	     81.86505121	     80.67450933
      0.06250000	     -0.45235222	      0.52331991	     -0.27694521	     -1.06213583	      1.41697398	     -0.04598060	     -1.76249350	      1.25865493	      1.08668072	      5.51691603	      0.09628835	      7.88731884	     -4.76730414	     -7.39669782	     -1.26630285	      0.52756265	      2.43867861	      5.74474877	      0.10026478	      7.63596393	     -1.93625795	     -7.39669782	     -4.30743092	     -1.11398361	      1.00235898	     -0.50896940	     -5.19453473	     23.60320512	     85.89084817	     78.54456745	      3.54744163	     -4.97548906	     23.63414842	     81.95078301	     79.32646375
      0.06666670	     -0.58980243	      0.54112162	     -0.35375214	     -1.06337561	      1.41793231	     -0.04683200	     -1.60786097	      1.20984829	      0.92340085	      5.47128981	      0.09549202	      7.83705181	     -4.69045428	     -7.42551300	     -1.13324539	      0.54664846	      2.37003454	      5.67924130	      0.09912146	      7.48618502	     -1.97911278	     -7.42551300	     -4.24218112	     -1.10153966	      1.03976146	     -0.61105372	     -5.19989861	     23.43688915	     85.95890293	     82.11253315	      3.40310974	     -4.86988189	     23.19338385	     82.04775441	     82.86224368
      0.07083330	     -0.57632029	      0.54854249	     -0.34348473	     -1.06237338	      1.41635696	     -0.04581284	     -1.68037318	      1.20309516	      0.84935529	      5.30977212	      0.09267301	      7.73214375	     -4.75127390	     -7.43506655	     -1.16764336	      0.54764649	      2.32163315	      5.62864386	      0.09823837	      7.36936781	     -2.07516100	     -7.43506655	     -4.25241139	     -1.11206211	      0.99761900	     -0.52954200	     -5.19682683	     23.47110560	     85.87259924	     80.59221379	      3.40355930	     -4.83188275	     23.13535917	     82.01961311	     81.30525240
      0.07500000	     -0.58463432	      0.53930569	     -0.37762154	     -1.06239183	      1.41305556	     -0.04578453	     -1.66781000	      1.20962014	      0.80460603	      5.30097892	      0.09251954	      7.79308348	     -4.67734852	     -7.43823828	     -1.17634741	      0.52943944	      2.17574783	      5.61496751	      0.09799967	      7.40589658	     -1.99828482	     -7.43823828	     -4.32462066	     -1.09415968	      1.00848718	     -0.56057447	     -5.27630471	     23.44748274	     86.21253627	     80.22360137	      3.32666753	     -4.85437064	     23.07215062	     82.41342447	     80.90658192
